<?xml version="1.0" encoding="UTF-8"?>
<svg id="_レイヤー_2" data-name="レイヤー_2" xmlns="http://www.w3.org/2000/svg" viewBox="0 0 77.97 77.37">
  <defs>
    <style>
      .cls-1 {
        fill: #932223;
      }
    </style>
  </defs>
  <g id="_レイヤー_3" data-name="レイヤー_3">
    <path class="cls-1" d="M15.6.11c-2.35-.5-4.32.69-6.12,2.29-1.39,1.24-3.12,2.89-4.05,4.21C3.72,9.05,1,12.91.71,15.48c-.2,1.76-.71,3.72-.71,6.43,0,2.86,1.29,5.66,1.86,7.44,2.29,7.15,6.36,12.99,9.01,17.16,2.41,3.79,11.46,12.6,16.16,16.44,3.91,3.21,8.68,6.56,13.87,9.15,2.75,1.37,9.73,4.36,13.15,4.86,2.16.32,6.86.71,9.01,0s6.15-3.29,8.01-4.72,5.43-5.43,6.01-6.29q.97-1.45.86-3.43c-.1-1.79-4.58-5.58-5.72-6.72-1-1-8.49-8.05-10.32-9.77-.31-.29-.68-.51-1.09-.6-.43-.1-1.04-.17-1.74-.06-1.46.22-2.57,1.14-3.57,2.29s-7.29,6.86-7.29,6.86c0,0-.72.69-2,1-2.39.58-4.14-1.44-5.58-2.43-2.32-1.6-4.83-4.09-9.15-8.29-1.58-1.54-6.9-8.01-8.85-10.4-.48-.58-.76-1.29-.82-2.04l-.05-.57c-.12-1.47,3.43-4.72,4.29-5.43.64-.53,3.34-3.21,4.68-4.54.67-.67,1.22-1.46,1.53-2.36.03-.09.06-.17.08-.26.44-1.53-.14-3-.71-3.86s-8.29-8.44-8.29-8.44L16.16.61s-.53-.49-.56-.5Z"/>
  </g>
</svg>